<?xml version="1.0" encoding="iso-8859-1"?>
<!-- Uploaded to: SVG Repo, www.svgrepo.com, Generator: SVG Repo Mixer Tools -->
<svg version="1.1" id="Layer_1" xmlns="http://www.w3.org/2000/svg" xmlns:xlink="http://www.w3.org/1999/xlink" 
	 viewBox="0 0 480 480" xml:space="preserve">
<path style="fill:#F9FBFE;" d="M383.688,472h-328c-8.84,0-16-7.16-16-16V24c0-8.84,7.16-16,16-16h328c8.84,0,16,7.16,16,16v432
	C399.688,464.84,392.528,472,383.688,472z"/>
<path style="fill:#4D4D4D;" d="M383.688,480h-328c-13.232,0-24-10.768-24-24V24c0-13.232,10.768-24,24-24h328
	c13.232,0,24,10.768,24,24v432C407.688,469.232,396.92,480,383.688,480z M55.688,16c-4.408,0-8,3.584-8,8v432c0,4.416,3.592,8,8,8
	h328c4.408,0,8-3.584,8-8V24c0-4.416-3.592-8-8-8H55.688z"/>
<path style="fill:#E66032;" d="M55.688,64h-24c-8.84,0-16-7.16-16-16l0,0c0-8.84,7.16-16,16-16h24V64z"/>
<path style="fill:#4D4D4D;" d="M55.688,72h-24c-13.232,0-24-10.768-24-24s10.768-24,24-24h24c4.416,0,8,3.576,8,8v32
	C63.688,68.424,60.104,72,55.688,72z M31.688,40c-4.408,0-8,3.584-8,8s3.592,8,8,8h16V40H31.688z"/>
<path style="fill:#E66032;" d="M55.688,128h-24c-8.84,0-16-7.16-16-16l0,0c0-8.84,7.16-16,16-16h24V128z"/>
<path style="fill:#4D4D4D;" d="M55.688,136h-24c-13.232,0-24-10.768-24-24s10.768-24,24-24h24c4.416,0,8,3.576,8,8v32
	C63.688,132.424,60.104,136,55.688,136z M31.688,104c-4.408,0-8,3.584-8,8s3.592,8,8,8h16v-16H31.688z"/>
<path style="fill:#E66032;" d="M55.688,192h-24c-8.84,0-16-7.16-16-16l0,0c0-8.84,7.16-16,16-16h24V192z"/>
<path style="fill:#4D4D4D;" d="M55.688,200h-24c-13.232,0-24-10.768-24-24s10.768-24,24-24h24c4.416,0,8,3.576,8,8v32
	C63.688,196.424,60.104,200,55.688,200z M31.688,168c-4.408,0-8,3.584-8,8s3.592,8,8,8h16v-16H31.688z"/>
<path style="fill:#E66032;" d="M55.688,256h-24c-8.84,0-16-7.16-16-16l0,0c0-8.84,7.16-16,16-16h24V256z"/>
<path style="fill:#4D4D4D;" d="M55.688,264h-24c-13.232,0-24-10.768-24-24s10.768-24,24-24h24c4.416,0,8,3.576,8,8v32
	C63.688,260.424,60.104,264,55.688,264z M31.688,232c-4.408,0-8,3.584-8,8c0,4.416,3.592,8,8,8h16v-16H31.688z"/>
<path style="fill:#E66032;" d="M55.688,320h-24c-8.84,0-16-7.16-16-16l0,0c0-8.84,7.16-16,16-16h24V320z"/>
<path style="fill:#4D4D4D;" d="M55.688,328h-24c-13.232,0-24-10.768-24-24s10.768-24,24-24h24c4.416,0,8,3.576,8,8v32
	C63.688,324.424,60.104,328,55.688,328z M31.688,296c-4.408,0-8,3.584-8,8s3.592,8,8,8h16v-16H31.688z"/>
<path style="fill:#E66032;" d="M55.688,384h-24c-8.84,0-16-7.16-16-16l0,0c0-8.84,7.16-16,16-16h24V384z"/>
<path style="fill:#4D4D4D;" d="M55.688,392h-24c-13.232,0-24-10.768-24-24s10.768-24,24-24h24c4.416,0,8,3.576,8,8v32
	C63.688,388.424,60.104,392,55.688,392z M31.688,360c-4.408,0-8,3.584-8,8s3.592,8,8,8h16v-16H31.688z"/>
<path style="fill:#E66032;" d="M55.688,448h-24c-8.84,0-16-7.16-16-16l0,0c0-8.84,7.16-16,16-16h24V448z"/>
<path style="fill:#4D4D4D;" d="M55.688,456h-24c-13.232,0-24-10.768-24-24s10.768-24,24-24h24c4.416,0,8,3.576,8,8v32
	C63.688,452.424,60.104,456,55.688,456z M31.688,424c-4.408,0-8,3.584-8,8s3.592,8,8,8h16v-16H31.688z"/>
<path style="fill:#CCCCCC;" d="M347.688,48h-240c-2.208,0-4,1.792-4,4v240c0,2.208,1.792,4,4,4h240c2.208,0,4-1.792,4-4V52
	C351.688,49.792,349.896,48,347.688,48z M116.808,179.752l50.736,50.736L148.2,249.832
	C130.32,231.408,118.752,206.904,116.808,179.752z M232.208,165.816l0.448-96.168l47.864,47.856L232.208,165.816z M286.176,123.168
	L331.008,168h-89.664L286.176,123.168z M224.208,166.864l-49.344-49.344l49.808-49.8L224.208,166.864z M214.032,168h-89.664
	l44.832-44.832L214.032,168z M222.032,176L173.2,224.832L124.368,176H222.032z M224.12,185.224l-0.416,90.112l-44.848-44.848
	L224.12,185.224z M232.12,186.088l44.4,44.4l-44.808,44.808L232.12,186.088z M233.344,176h97.664l-48.832,48.832L233.344,176z
	 M291.832,117.512l18.688-18.688c0.728-0.728,1.088-1.68,1.136-2.64c17.088,18.76,27.88,43.256,29.128,70.272L291.832,117.512z
	 M304.856,93.168l-18.688,18.688l-52.24-52.232c28.744,1.328,54.72,13.384,73.88,32.4C306.744,91.992,305.672,92.36,304.856,93.168z
	 M169.2,111.856L150.144,92.8c-0.232-0.232-0.52-0.368-0.792-0.528c18.696-18.688,43.968-30.704,71.976-32.544L169.2,111.856z
	 M144.168,97.976c0.12,0.16,0.176,0.344,0.32,0.488l19.056,19.056l-46.776,46.768C118.432,138.984,128.456,115.976,144.168,97.976z
	 M173.2,236.144l47.448,47.448c-25.512-1.824-48.648-12.184-66.632-28.264L173.2,236.144z M282.176,236.144l20.168,20.168
	c-18.344,15.976-41.88,26.04-67.728,27.392L282.176,236.144z M308.208,250.96c-0.072-0.088-0.104-0.2-0.192-0.288l-20.184-20.184
	l52.912-52.912C339.256,206.136,327.176,231.936,308.208,250.96z M343.688,136.184C331.696,97.432,300.584,67.088,261.448,56h82.24
	V136.184z M196,56c-41.784,11.84-74.32,45.68-84.312,88.2V56H196z M111.688,199.16c5.16,21.968,16.264,41.664,31.64,57.176
	c-0.008,1.032,0.376,2.072,1.168,2.864c0.784,0.784,1.808,1.168,2.832,1.168c0.104,0,0.2-0.048,0.304-0.064
	c14.248,13.048,31.608,22.68,50.856,27.696h-86.8V199.16z M258.96,288c40.296-10.488,72.488-41.256,84.728-80.824V288H258.96z"/>
<rect x="342.771" y="166.858" transform="matrix(-0.7071 0.7071 -0.7071 -0.7071 798.3273 195.0359)" style="fill:#FCB641;" width="32" height="191.998"/>
<path style="fill:#4D4D4D;" d="M415.344,350.088c-2.12,0-4.16-0.84-5.656-2.344l-135.76-135.768c-3.128-3.128-3.128-8.184,0-11.312
	l22.624-22.632c3-3,8.312-3,11.312,0L443.632,313.8c3.128,3.128,3.128,8.184,0,11.312L421,347.744
	C419.504,349.24,417.464,350.088,415.344,350.088z M290.896,206.32l124.448,124.456l11.32-11.32L302.208,195L290.896,206.32z"/>
<rect x="320.158" y="189.481" transform="matrix(-0.7071 0.7071 -0.7071 -0.7071 775.7223 249.6463)" style="fill:#F7C76A;" width="32" height="191.998"/>
<path style="fill:#4D4D4D;" d="M392.72,372.712c-2.048,0-4.096-0.784-5.656-2.344L251.296,234.6
	c-1.504-1.504-2.344-3.528-2.344-5.656s0.84-4.16,2.344-5.656l22.632-22.624c3.128-3.128,8.184-3.128,11.312,0L421,336.432
	c3.128,3.128,3.128,8.184,0,11.312l-22.624,22.624C396.816,371.928,394.768,372.712,392.72,372.712z M268.264,228.944L392.72,353.4
	l11.312-11.312L279.584,217.632L268.264,228.944z"/>
<path style="fill:#F9FBFE;" d="M392.72,364.712l16.968,16.968c12.496,12.496,32.76,12.496,45.256,0l0,0
	c12.496-12.496,12.496-32.76,0-45.256l-16.968-16.968L392.72,364.712z"/>
<path style="fill:#4D4D4D;" d="M432.312,399.056c-10.68,0-20.728-4.168-28.28-11.72l-16.968-16.968
	c-3.128-3.128-3.128-8.184,0-11.312L432.32,313.8c1.504-1.504,3.536-2.344,5.656-2.344l0,0c2.12,0,4.16,0.84,5.656,2.344
	l16.968,16.976c7.552,7.552,11.712,17.592,11.712,28.28s-4.16,20.728-11.712,28.28S443,399.056,432.312,399.056z M404.032,364.712
	l11.312,11.312c9.072,9.064,24.872,9.064,33.944,0c4.528-4.528,7.024-10.552,7.024-16.968s-2.496-12.44-7.024-16.968l-11.312-11.32
	L404.032,364.712z"/>
<polygon style="fill:#BD8931;" points="219.584,146.32 242.88,197.768 271.032,169.616 "/>
<path style="fill:#4D4D4D;" d="M242.88,205.768c-0.48,0-0.96-0.04-1.432-0.136c-2.584-0.472-4.768-2.168-5.856-4.568l-23.296-51.448
	c-1.368-3.032-0.72-6.6,1.632-8.952s5.928-3,8.96-1.632l51.448,23.296c2.392,1.088,4.096,3.272,4.568,5.856
	c0.472,2.576-0.36,5.224-2.216,7.088l-28.152,28.152C247.024,204.936,244.984,205.768,242.88,205.768z M235.632,162.368
	l9.768,21.568l11.8-11.808L235.632,162.368z"/>
<polygon style="fill:#F9FBFE;" points="302.208,183.688 271.032,169.616 242.88,197.768 256.952,228.944 "/>
<path style="fill:#4D4D4D;" d="M256.952,236.944c-0.48,0-0.96-0.04-1.44-0.136c-2.584-0.472-4.776-2.176-5.856-4.576l-14.072-31.176
	c-1.368-3.032-0.712-6.592,1.64-8.944l28.152-28.152c2.344-2.344,5.912-3.008,8.944-1.632l31.176,14.072
	c2.4,1.08,4.112,3.264,4.584,5.848s-0.352,5.232-2.216,7.096L262.608,234.6C261.096,236.12,259.056,236.944,256.952,236.944z
	 M252.448,199.512l7.032,15.584l28.88-28.88l-15.592-7.04L252.448,199.512z"/>
<path style="fill:#F9FBFE;" d="M156.088,359.312l-22.624-22.624c-12.496-12.496-12.496-32.76,0-45.256l5.656-5.656
	c12.496-12.496,32.76-12.496,45.256,0L207,308.4L156.088,359.312z"/>
<rect x="182.309" y="318.624" transform="matrix(-0.7071 0.7071 -0.7071 -0.7071 634.746 478.326)" style="fill:#E66032;" width="71.999" height="103.999"/>
<g>
	<path style="fill:#4D4D4D;" d="M286.192,376.28l-73.536-73.536l-22.624-22.624c-15.592-15.584-40.968-15.584-56.568,0l-5.656,5.656
		c-15.592,15.592-15.592,40.976,0,56.568l22.632,22.624l73.536,73.536c1.504,1.504,3.536,2.344,5.656,2.344s4.16-0.84,5.656-2.344
		l50.912-50.912C289.32,384.472,289.32,379.408,286.192,376.28z M139.12,297.088l5.656-5.656c4.68-4.672,10.832-7.016,16.976-7.016
		c6.152,0,12.296,2.344,16.976,7.016l16.96,16.968l-19.8,19.8l-19.8,19.8l-16.976-16.968
		C129.76,321.672,129.76,306.448,139.12,297.088z M229.632,421.536l-62.224-62.224l19.8-19.8l19.8-19.8l62.224,62.224
		L229.632,421.536z"/>
	<path style="fill:#4D4D4D;" d="M212.664,381.936c1.56,1.56,3.608,2.344,5.656,2.344s4.096-0.784,5.656-2.344l5.656-5.656
		c3.128-3.128,3.128-8.184,0-11.312s-8.184-3.128-11.312,0l-5.656,5.656C209.536,373.752,209.536,378.816,212.664,381.936z"/>
</g>
</svg>