<?xml version="1.0" encoding="iso-8859-1"?>
<!-- Uploaded to: SVG Repo, www.svgrepo.com, Generator: SVG Repo Mixer Tools -->
<svg height="800px" width="800px" version="1.1" id="Layer_1" xmlns="http://www.w3.org/2000/svg" xmlns:xlink="http://www.w3.org/1999/xlink" 
	 viewBox="0 0 512 512" xml:space="preserve">
<g>
	<path style="fill:#FFFFFF;" d="M230.348,478.371l-7.901-71.098h21.911v81.455h-2.444
		C235.98,488.727,231.011,484.271,230.348,478.371z"/>
	<path style="fill:#FFFFFF;" d="M281.641,478.371c-0.663,5.9-5.632,10.356-11.567,10.356h-2.444v-81.455h21.911L281.641,478.371z"/>
</g>
<path style="fill:#00384E;" d="M255.994,116.364c-32.081,0-58.182-26.1-58.182-58.182S223.913,0,255.994,0
	s58.182,26.1,58.182,58.182S288.076,116.364,255.994,116.364z M255.994,23.273c-19.247,0-34.909,15.663-34.909,34.909
	s15.663,34.909,34.909,34.909s34.909-15.663,34.909-34.909S275.241,23.273,255.994,23.273z"/>
<path style="fill:#FAA85F;" d="M307.427,301.265l18.385,94.371H186.176l18.385-94.371l-41.658-10.356l11.636-93.091
	c0,0,0.465-34.56,23.273-42.938c11.055-3.956,23.273-15.244,23.273-15.244c19.316,15.476,50.502,15.476,69.818,0
	c0,0,12.218,11.287,23.273,15.244c22.807,8.378,23.273,42.938,23.273,42.938l11.636,93.091L307.427,301.265z"/>
<path style="fill:#00384E;" d="M349.062,196.922c-0.221-5.876-2.735-42.624-30.964-52.992c-7.168-2.572-16.372-10.147-19.305-12.847
	c-4.236-3.875-10.671-4.131-15.162-0.524c-14.976,11.997-40.285,11.997-55.261,0c-4.48-3.607-10.927-3.363-15.162,0.524
	c-2.932,2.7-12.137,10.275-19.398,12.881c-28.148,10.333-30.65,47.081-30.871,52.957l-11.567,92.544
	c-0.733,5.841,3.025,11.311,8.739,12.73l30.929,7.692l-16.268,83.514c-0.663,3.409,0.233,6.947,2.432,9.623
	c2.199,2.676,5.492,4.247,8.972,4.247h12.858l8.18,73.681c1.978,17.699,16.896,31.046,34.7,31.046h14.08h14.08
	c17.804,0,32.721-13.347,34.688-31.057l8.192-73.67h12.858c3.479,0,6.772-1.559,8.983-4.236s3.107-6.214,2.432-9.623L320.96,309.9
	l30.929-7.692c5.713-1.42,9.472-6.889,8.739-12.73L349.062,196.922z M230.348,478.371l-7.901-71.098h21.911v81.455h-2.444
	C235.98,488.727,231.011,484.271,230.348,478.371z M281.641,478.371c-0.663,5.9-5.632,10.356-11.567,10.356h-2.444v-81.455h21.911
	L281.641,478.371z M316.201,287.092l-2.025-9.1v-33.629c0-6.423-5.213-11.636-11.636-11.636c-6.423,0-11.636,5.213-11.636,11.636
	v34.909c0,0.849,0.093,1.699,0.279,2.525l4.841,21.818L311.686,384h-9.146h-46.545h-46.545h-9.146l15.663-80.396l4.841-21.818
	c0.186-0.815,0.279-1.664,0.279-2.513v-34.909c0-6.423-5.213-11.636-11.636-11.636c-6.423,0-11.636,5.213-11.636,11.636v33.629
	l-2.025,9.1l-20.061-4.992l10.356-82.851c0.058-0.419,0.093-0.849,0.093-1.268c0-0.268,1.012-26.799,15.558-32.14
	c7.436-2.653,14.86-7.657,20.096-11.683c20.608,11.718,47.721,11.706,68.329,0c5.225,4.015,12.625,9.007,20.003,11.648
	c14.708,5.399,15.651,31.942,15.651,32.175c0,0.431,0.035,0.861,0.093,1.28l10.356,82.851L316.201,287.092z"/>
<circle style="fill:#FFFFFF;" cx="255.994" cy="58.182" r="34.909"/>
</svg>