<?xml version="1.0" encoding="iso-8859-1"?>
<!-- Uploaded to: SVG Repo, www.svgrepo.com, Generator: SVG Repo Mixer Tools -->
<svg version="1.1" id="Layer_1" xmlns="http://www.w3.org/2000/svg" xmlns:xlink="http://www.w3.org/1999/xlink" 
	 viewBox="0 0 512 512" xml:space="preserve">
<path style="fill:#FFAD41;" d="M192,122.241c0,0-25.6,5.759,0,95.359c0,0-12.8,128,25.6,102.4l12.8-115.2L192,122.241z"/>
<path style="fill:#FFC170;" d="M320,122.241c0,0,25.6,5.759,0,95.359c0,0,12.8,128-25.6,102.4l-12.8-115.2L320,122.241z"/>
<path style="fill:#FFD6A0;" d="M294.4,435.2v-61.866l12.8-70.4L256,294.4l-51.2,8.534l12.8,70.4V435.2
	c-25.601,0-25.6,25.6-25.6,25.6l64,12.8l64-12.8C320,460.8,320,435.2,294.4,435.2z"/>
<path style="fill:#FFC170;" d="M204.8,302.934l12.8,70.4V435.2c-25.6,0-25.6,25.6-25.6,25.6h64V302.934H204.8z"/>
<circle style="fill:#FFD6A0;" cx="236.8" cy="373.338" r="19.2"/>
<circle style="fill:#FFEACF;" cx="275.2" cy="373.338" r="19.2"/>
<rect x="166.4" y="460.8" style="fill:#786145;" width="179.2" height="51.2"/>
<rect x="166.4" y="460.8" style="fill:#282017;" width="89.6" height="51.2"/>
<path style="fill:#FFD6A0;" d="M294.4,224l-38.4-6.4l-38.4,6.4c0,0-12.8,27.734-12.8,78.934H256h51.2
	C307.2,251.734,294.4,224,294.4,224z"/>
<path style="fill:#FFEACF;" d="M294.4,224c0,0,12.8,27.734,12.8,78.934H256V224H294.4z"/>
<rect x="230.4" y="89.6" style="fill:#FFC170;" width="25.6" height="38.4"/>
<rect x="256" y="89.6" style="fill:#FFD6A0;" width="25.6" height="38.4"/>
<path style="fill:#FFC170;" d="M256,110.934c-51.2,0-64,11.308-64,11.308L217.6,224H256h38.4L320,122.241
	C320,122.241,307.2,110.934,256,110.934z"/>
<path style="fill:#FFD6A0;" d="M320,122.241c0,0-12.8-11.308-64-11.308V224h38.4L320,122.241z"/>
<path style="fill:#FFEACF;" d="M307.2,85.334V51.2C307.2,22.922,284.278,0,256,0c0,1.138-11.378,22.922-11.378,51.2l11.378,64
	L307.2,85.334z"/>
<path style="fill:#FFAD41;" d="M256,115.2c0,0,0-92.73,0-115.2c-28.278,0-51.2,22.922-51.2,51.2v34.134L256,115.2z"/>
</svg>