<?xml version="1.0" encoding="iso-8859-1"?>
<!-- Uploaded to: SVG Repo, www.svgrepo.com, Generator: SVG Repo Mixer Tools -->
<svg height="800px" width="800px" version="1.1" id="Layer_1" xmlns="http://www.w3.org/2000/svg" xmlns:xlink="http://www.w3.org/1999/xlink" 
	 viewBox="0 0 512 512" xml:space="preserve">
<path style="fill:#FF5E8A;" d="M341.563,299.524c0,0,27.95-73.136,35.455-92.865c10.615-27.902-12.923-128.263-12.923-128.263
	l-79.671,37.893c-18.06,8.589-39.029,8.589-57.091,0l-79.671-37.893c0,0-23.538,100.361-12.923,128.263
	c7.507,19.729,35.455,92.865,35.455,92.865s-61.753,54.83-44.262,91.472c4.253,8.908,16.373,18.168,29.066,25.939
	c28.443,17.415,53.508,39.838,73.398,66.611c4.03,5.423,7.656,10.42,10.393,14.393h33.532c2.032-3.062,4.577-6.708,7.428-10.683
	c21.177-29.526,48.468-54.037,79.612-72.754c11.715-7.04,22.535-15.307,26.579-23.507
	C403.884,354.614,341.563,299.524,341.563,299.524z"/>
<path style="fill:#FECC85;" d="M282.668,164.297c-14.943,0-26.666,16.661-26.666,16.661s-11.058-16.661-26.673-16.661
	c-15.188,0-27.59,12.526-28.401,27.693c-0.457,8.568,2.304,15.089,6.196,20.994c7.777,11.799,41.775,40.206,48.928,40.206
	c7.3,0,40.996-28.303,48.824-40.206c3.9-5.933,6.655-12.426,6.195-20.994C310.258,176.824,297.856,164.297,282.668,164.297"/>
<path d="M358.062,295.739c7.66-20.051,26.197-68.57,32.098-84.081c11.559-30.384-8.28-119.014-12.376-136.473
	c-0.217-0.925-0.539-1.811-0.928-2.66V14.06c0-7.764-6.296-14.06-14.06-14.06s-14.06,6.296-14.06,14.06v56.073l-70.35,33.46
	c-14.302,6.802-30.71,6.805-45.013,0l-70.112-33.346V14.06c0-7.764-6.295-14.06-14.06-14.06c-7.765,0-14.06,6.296-14.06,14.06
	v57.964c-0.506,0.995-0.907,2.051-1.167,3.162C129.88,92.645,110.04,181.275,121.6,211.659
	c5.904,15.518,24.452,64.066,32.106,84.102c-17.793,17.614-58.432,63.647-40.461,101.291c4.904,10.276,16.162,20.702,34.413,31.874
	c27.566,16.879,50.934,38.076,69.452,63.006c4.256,5.727,7.654,10.433,10.101,13.984c2.624,3.809,6.954,6.084,11.578,6.084h33.532
	c4.713,0,9.111-2.361,11.716-6.288c1.821-2.745,4.222-6.198,7.137-10.262c19.714-27.485,45.092-50.664,75.428-68.896
	c16.716-10.047,27.165-19.645,31.949-29.341C417.063,359.68,376.004,313.413,358.062,295.739z M373.33,384.776
	c-0.81,1.644-4.734,7.771-21.214,17.676c-33.64,20.217-61.832,45.992-83.794,76.609c-1.22,1.701-2.361,3.31-3.418,4.818H246.07
	c-1.874-2.603-4.009-5.516-6.387-8.719c-20.674-27.828-46.695-51.451-77.343-70.217c-18.575-11.37-22.849-18.187-23.718-20.005
	c-8.757-18.343,17.149-51.645,35.213-69.527c1.513,0.557,3.141,0.876,4.848,0.876h73.926c7.764,0,14.06-6.296,14.06-14.06
	c0-7.764-6.296-14.06-14.06-14.06h-71.701c-6.95-18.187-26.867-70.321-33.026-86.507c-5.424-14.26,1.638-63.968,9.711-102.972
	l63.703,30.298c21.979,10.455,47.188,10.455,69.168,0l63.705-30.299c8.076,38.996,15.14,88.699,9.708,102.973
	c-7.504,19.725-35.447,92.844-35.447,92.844c-2.089,5.468-0.565,11.664,3.813,15.548
	C349.936,325.742,383.257,364.652,373.33,384.776z"/>
<path d="M282.668,150.237c-10.778,0-19.891,5.05-26.523,10.4c-6.572-5.371-15.695-10.4-26.817-10.4
	c-22.568,0-41.211,18.011-42.442,41.003c-0.734,13.752,4.498,23.411,8.497,29.483c6.579,9.981,22.693,23.666,27.475,27.622
	c22.849,18.905,29.578,18.905,33.193,18.905c3.653,0,10.452,0,33.194-18.881c4.747-3.941,20.748-17.582,27.379-27.663
	c3.994-6.077,9.221-15.744,8.485-29.47C323.878,168.247,305.236,150.237,282.668,150.237z M293.129,205.259
	c-5.327,8.1-27.523,27.07-37.052,32.826c-9.607-5.801-31.909-24.791-37.211-32.836c-3.04-4.612-4.131-8.12-3.897-12.508
	c0.425-7.931,6.867-14.383,14.361-14.383c5.936,0,12.677,7.044,14.959,10.376c2.567,3.868,6.857,6.251,11.5,6.314
	c4.637,0.117,8.996-2.137,11.667-5.935c3.128-4.339,10.127-10.756,15.213-10.756c7.494,0,13.938,6.454,14.364,14.383
	C297.265,197.119,296.17,200.63,293.129,205.259z"/>
<path d="M307.543,296.844c-0.352-0.845-0.789-1.659-1.294-2.418c-0.506-0.775-1.097-1.492-1.743-2.139
	c-0.647-0.647-1.378-1.237-2.139-1.743c-0.759-0.505-1.589-0.942-2.431-1.294c-0.845-0.352-1.729-0.617-2.629-0.8
	c-4.57-0.928-9.42,0.575-12.684,3.837c-0.661,0.647-1.237,1.364-1.758,2.139c-0.505,0.759-0.942,1.573-1.294,2.418
	c-0.352,0.858-0.617,1.743-0.8,2.629c-0.183,0.913-0.267,1.842-0.267,2.756c0,3.698,1.492,7.325,4.12,9.939
	c2.615,2.615,6.23,4.121,9.94,4.121c0.914,0,1.843-0.098,2.742-0.281c0.9-0.169,1.786-0.45,2.629-0.801s1.672-0.787,2.431-1.294
	c0.759-0.505,1.492-1.095,2.139-1.743c2.614-2.614,4.12-6.241,4.12-9.939c0-0.914-0.098-1.843-0.281-2.756
	C308.162,298.588,307.895,297.702,307.543,296.844z"/>
</svg>