<?xml version="1.0" encoding="iso-8859-1"?>
<!-- Uploaded to: SVG Repo, www.svgrepo.com, Generator: SVG Repo Mixer Tools -->
<svg height="800px" width="800px" version="1.1" id="Layer_1" xmlns="http://www.w3.org/2000/svg" xmlns:xlink="http://www.w3.org/1999/xlink" 
	 viewBox="0 0 509.126 509.126" xml:space="preserve">
<g>
	<path style="fill:#FDD7AD;" d="M271.463,60.044h-8.039h-8.03c0,0-144.671-7.985-144.671,207.576
		c0,56.401,4.401,118.434,46.942,158.828c15.261,14.48,33.235,25.645,50.589,37.421c17.363,11.776,32.678,27.298,55.17,27.298
		c22.501,0,37.807-15.522,55.179-27.298c17.354-11.776,35.328-22.941,50.589-37.421c42.541-40.394,46.933-102.427,46.933-158.828
		C416.126,52.059,271.463,60.044,271.463,60.044"/>
	<path style="fill:#DBB38D;" d="M318.595,463.864c-17.363,11.776-32.669,27.298-55.17,27.298c-22.492,0-37.807-15.522-55.17-27.298
		c-8.461-5.74-17.058-11.336-25.42-17.237v62.5h161.684v-62.841C335.994,452.312,327.218,458.016,318.595,463.864"/>
	<path style="fill:#C03A2B;" d="M110.906,284.36c115.595-136.776,233.364-143.513,233.364-143.513
		c31.996,16.276-26.947,62.877-26.947,62.877c51.083,0,80.842-35.93,80.842-35.93l13.671,75.983
		c2.973,16.519,4.716,33.262,4.554,50.05c-0.036,2.928-0.108,5.839-0.26,8.704l17.085,40.232c3.108,7.141,13.528,6.135,15.216-1.464
		l0.853-3.818c4.868-21.899,11.713-43.268,17.983-64.808c4.967-17.04,2.758-42.002,2.758-42.002
		c0-38.211-28.322-81.543-51.443-110.547c-13.635-17.094-24.801-35.849-35.445-54.955c-3.422-6.153-8.012-11.74-13.007-16.68
		c-15.513-15.36-36.72-23.399-58.539-24.271c-21.935-0.88-56.347-4.698-91.361-18.342c-21.351-8.309-45.568-7.932-66.246,1.922
		c-9.198,4.383-17.372,10.554-21.8,19.24c-4.976,9.746-9.997,19.447-16.932,27.908c-5.839,7.141-12.369,17.399-16.878,31.142
		c-6.8,20.705-17.148,40.286-32.858,55.386c-13.375,12.854-26.651,32.993-26.651,62.248c0,0-3.045,31.34,11.893,60.12
		c9.746,18.764,15.279,39.361,18.953,60.182c3.827,21.72,11.426,48.047,26.489,67.018c9.944,12.522,25.483,19.276,41.472,19.276
		l3.862-2.785C114.023,368.131,110.906,332.578,110.906,284.36"/>
</g>
</svg>