<?xml version="1.0" encoding="iso-8859-1"?>
<!-- Uploaded to: SVG Repo, www.svgrepo.com, Generator: SVG Repo Mixer Tools -->
<svg height="800px" width="800px" version="1.1" id="Layer_1" xmlns="http://www.w3.org/2000/svg" xmlns:xlink="http://www.w3.org/1999/xlink" 
	 viewBox="0 0 392.598 392.598" xml:space="preserve">
<path style="fill:#56ACE0;" d="M189.543,314.554L21.786,182.675v91.475h43.378c6.012,0,10.925,4.848,10.925,10.925
	c0,6.012-4.848,10.925-10.925,10.925H21.786v21.786h21.527c6.012,0,10.925,4.848,10.925,10.925c0,6.012-4.848,10.925-10.925,10.925
	H21.786v31.224h348.962V182.61L202.99,314.489C198.529,317.657,194.004,317.657,189.543,314.554z"/>
<polygon style="fill:#FFFFFF;" points="28.444,160.048 196.267,292.057 364.089,160.048 196.267,24.937 "/>
<path style="fill:#194F82;" d="M392.533,160.178c0-3.297-1.487-6.4-4.073-8.469L203.055,2.44c-4.008-3.232-9.632-3.232-13.705,0
	L4.073,151.644C1.552,153.713,0,156.816,0,160.113l0,0v221.543c0,6.012,4.848,10.925,10.925,10.925h370.747
	c6.012,0,10.925-4.849,10.925-10.925V160.178H392.533z M196.267,292.057L28.444,160.048L196.267,24.937l167.822,135.176
	L196.267,292.057z M370.747,370.796H21.786v-31.224h21.527c6.012,0,10.925-4.849,10.925-10.925c0-6.012-4.848-10.925-10.925-10.925
	H21.786v-21.786h43.378c6.012,0,10.925-4.848,10.925-10.925s-4.848-10.925-10.925-10.925H21.786V182.61l167.758,131.879
	c4.461,3.103,8.986,3.103,13.446,0L370.747,182.61V370.796L370.747,370.796z"/>
<path style="fill:#FFC10D;" d="M249.341,133.931c0-13.964-12.024-25.212-26.376-23.79c-7.499,0.776-14.093,5.301-18.166,11.572
	c-4.008,6.206-13.059,6.206-17.067,0l0,0c-4.073-6.271-10.667-10.925-18.166-11.572c-14.287-1.422-26.376,9.826-26.376,23.79
	c0,16.097,28.962,48.162,53.01,69.366C220.251,181.834,249.341,149.576,249.341,133.931z"/>
<path style="fill:#194F82;" d="M225.422,88.226c-10.796,0-21.01,3.814-29.156,10.537c-8.145-6.723-18.295-10.537-29.156-10.537
	c-25.212,0-45.77,20.558-45.77,45.77c0,34.263,56.566,82.747,67.943,92.186l0.453,0.388c3.814,3.168,9.244,3.103,13.059-0.065
	l0.453-0.388c11.378-9.503,67.814-58.699,67.814-92.121C271.127,108.784,250.57,88.226,225.422,88.226z M143.192,133.931
	c0-13.964,12.024-25.212,26.376-23.79c7.499,0.776,14.093,5.301,18.166,11.572l0,0c4.008,6.077,13.059,6.077,17.067,0
	c4.073-6.271,10.667-10.925,18.166-11.572c14.287-1.422,26.376,9.826,26.376,23.79c0,15.58-29.026,47.903-53.075,69.366
	C172.218,182.093,143.192,150.028,143.192,133.931z"/>
</svg>