<?xml version="1.0" encoding="iso-8859-1"?>
<!-- Uploaded to: SVG Repo, www.svgrepo.com, Generator: SVG Repo Mixer Tools -->
<svg version="1.1" id="Layer_1" xmlns="http://www.w3.org/2000/svg" xmlns:xlink="http://www.w3.org/1999/xlink" 
	 viewBox="0 0 512 512" xml:space="preserve">
<polygon style="fill:#F9545B;" points="360.185,62.515 262.372,160.327 331.685,229.64 492.345,68.981 "/>
<rect x="199.511" y="154.421" transform="matrix(-0.7071 -0.7071 0.7071 -0.7071 275.4973 581.7009)" style="fill:#0E4675;" width="117.424" height="158.744"/>
<path style="fill:#FC7576;" d="M452.006,90.799c-37.869,11.822-79.939,10.035-93.964-3.99
	c-14.026-14.026,5.303-34.979,43.173-46.801s79.939-10.035,93.964,3.991C509.204,58.024,489.875,78.977,452.006,90.799z"/>
<path style="fill:#3D7A94;" d="M267.769,320.993l-96.749-96.749L19.379,375.885c-9.52,9.52-9.52,25.098,0,34.618l62.131,62.131
	c9.52,9.52,25.098,9.52,34.618,0L267.769,320.993z"/>
<path style="fill:#000030;" d="M503.833,35.344c-19.893-19.898-69.597-18.467-106.266-7.021
	c-20.74,6.475-36.648,15.425-46.193,25.693l-73.314,73.314c-0.652-0.108-1.317-0.163-1.988-0.163c-3.246,0-6.358,1.29-8.654,3.585
	l-86.289,86.29l-1.454-1.454c-4.781-4.778-12.528-4.778-17.31,0L10.725,367.229C3.809,374.146,0,383.367,0,393.194
	c0,9.827,3.809,19.048,10.725,25.963l17.202,17.201c0.034,0.037,0.071,0.073,0.106,0.109c0.035,0.035,0.072,0.072,0.109,0.106
	l44.713,44.713c6.915,6.916,16.136,10.727,25.963,10.727s19.048-3.809,25.965-10.725l151.64-151.64
	c4.779-4.779,4.779-12.529,0-17.31l-1.454-1.454l86.289-86.289c2.897-2.897,4.038-6.886,3.423-10.642L498.967,79.668
	c6.393-5.961,10.581-12.427,12.237-19.153C513.471,51.302,510.854,42.364,503.833,35.344z M107.474,463.978
	c-2.292,2.292-5.367,3.556-8.654,3.556c-3.289,0-6.361-1.262-8.653-3.556l-36.167-36.167L131,350.811
	c4.779-4.779,4.779-12.529,0-17.31c-4.781-4.778-12.528-4.778-17.31,0L36.69,410.502l-8.656-8.654
	c-2.292-2.292-3.554-5.366-3.554-8.653c0-3.288,1.263-6.362,3.556-8.654L171.02,241.555l17.308,17.308l-44.347,44.347
	c-4.779,4.779-4.779,12.529,0,17.31c4.781,4.778,12.528,4.778,17.31,0l44.347-44.347l44.821,44.821L107.474,463.978z
	 M257.661,293.575l-59.225-59.224l77.636-77.635l59.223,59.224L257.661,293.575z M348.994,195.022l-52.003-52.003l50.106-50.106
	c0.703,0.875,1.466,1.726,2.291,2.551c16.636,16.635,54.109,18.36,87.377,11.789L348.994,195.022z M487.434,54.662
	c-0.351,1.427-1.51,3.322-3.563,5.487c-0.061,0.059-0.122,0.118-0.181,0.177l-1.076,1.076c-5.76,5.448-16.789,12.261-34.254,17.713
	c0,0,0,0-0.001,0c-38.105,11.895-73.244,7.457-81.663-0.96c-1.127-1.128-1.042-1.48-0.911-2.011
	c1.264-5.132,12.99-16.31,39.078-24.453c16.614-5.187,32.664-7.268,46.182-7.268c17.484,0,30.731,3.482,35.48,8.231
	C487.652,53.779,487.565,54.132,487.434,54.662z"/>
</svg>