<?xml version="1.0" encoding="iso-8859-1"?>
<!-- Uploaded to: SVG Repo, www.svgrepo.com, Generator: SVG Repo Mixer Tools -->
<svg fill="#000000" height="800px" width="800px" version="1.1" id="Layer_1" xmlns="http://www.w3.org/2000/svg" xmlns:xlink="http://www.w3.org/1999/xlink" 
	 viewBox="0 0 512.88 512.88" xml:space="preserve">
<g transform="translate(1 1)">
	<g>
		<path d="M511.867,213.471c0.002-0.185,0.013-0.367,0.013-0.553v-102.4c0-21.695-18.224-45.993-43.39-45.993h-17.356
			c-10.017,0-18.928,3.858-26.034,9.861v-5.522c0-22.563-18.224-47.729-43.39-47.729h-17.356c-11.614,0-21.743,5.366-29.291,13.356
			c-6.314-16.579-21.274-30.712-40.133-30.712h-17.356c-18.859,0-33.819,14.133-40.133,30.712
			c-7.548-7.99-17.677-13.356-29.291-13.356h-17.356c-25.166,0-43.39,25.166-43.39,47.729v106.358l-15.62-15.239
			c-6.075-6.942-12.149-13.885-18.224-20.827l-0.868-0.868c-21.695-26.034-60.746-37.315-89.383-26.902
			c-5.207,1.736-9.546,4.339-12.149,6.075c-13.017,8.678-12.149,19.959-12.149,23.43c0,4.339,0,5.207,13.017,22.563
			c14.753,19.959,39.051,53.803,58.142,87.647c1.736,2.603,31.241,53.803,57.275,83.308c5.207,5.207,9.546,10.414,13.017,15.62
			l15.391,20.521c0.068,0.164,0.15,0.325,0.23,0.487v31.928c0,57.275,46.861,104.136,104.136,104.136h107.607
			c45.993,0,95.458-42.522,103.268-87.648c1.736-8.678,5.207-17.356,12.149-26.034c19.092-25.166,28.637-52.068,28.637-78.969
			V213.786C511.88,213.678,511.87,213.576,511.867,213.471z M451.134,81.881h17.356c14.753,0,26.034,15.62,26.034,28.637v102.4
			c0,19.092-14.753,33.844-34.712,33.844c-19.091,0-34.71-13.883-34.712-30.371v-40.789c0,0,0-0.001,0-0.001v-65.083
			C425.1,97.501,436.382,81.881,451.134,81.881z M364.354,38.491h17.356c14.753,0,26.034,16.488,26.034,30.373v41.654v65.087
			c-0.001,19.958-16.489,36.445-36.447,36.445c-18.224,0-32.976-14.753-32.976-32.976v-5.207c0,0,0-0.001,0-0.001v-15.62V68.864
			C338.32,54.979,349.602,38.491,364.354,38.491z M251.541,51.508c0-13.885,11.281-30.373,26.034-30.373h17.356
			c14.753,0,26.034,16.488,26.034,30.373v17.356v90.251c0,2.974-0.374,5.869-1.063,8.646c-1.147,0.968-1.985,2.234-2.408,3.503
			c-5.207,13.885-19.092,23.43-33.844,23.43c-9.546,0-19.091-4.339-25.166-12.149c-0.247-0.247-0.494-0.483-0.742-0.713
			c-3.898-5.416-6.2-12.058-6.2-19.246V68.864V51.508z M164.761,68.864c0-13.885,11.281-30.373,26.034-30.373h17.356
			c14.753,0,26.034,16.488,26.034,30.373v92.854v14.753c0,2.186-0.209,4.326-0.587,6.412c-1.387,1.144-2.406,2.568-2.884,4.002
			c-5.207,14.753-19.092,25.166-34.712,25.166c-5.985,0-11.718-1.724-16.697-4.755c-8.777-5.923-14.544-15.96-14.544-27.354V68.864z
			 M494.524,313.582c0,23.085-8.437,45.329-22.794,68.389c-1.646,0.522-3.124,1.46-4.107,2.771
			c-7.81,10.414-11.281,12.149-36.447,19.091c-4.339,0.868-6.942,6.075-6.075,10.414c1.736,3.471,5.207,6.075,8.678,6.075
			c0.868,0,1.736,0,1.736,0c8.288-2.21,14.812-3.981,20.226-5.872c-0.093,0.51-0.188,1.019-0.266,1.533
			c-6.942,38.183-48.597,74.63-86.78,74.63H261.087c-47.729,0-86.78-39.051-86.78-86.78v-9.898
			c9.293,10.962,21.019,21.826,40.786,24.65c0.868,0,0.868,0,1.736,0c4.339,0,7.81-2.603,7.81-8.678
			c0.868-4.339-2.603-8.678-6.942-9.546c-17.356-2.603-26.034-13.017-35.58-25.166c-2.744-3.431-6.033-7.398-9.434-11.056
			c-0.037-0.075-0.075-0.15-0.112-0.225l-17.356-23.431c-4.339-5.207-8.678-11.281-13.885-17.356
			c-25.166-28.637-55.539-79.837-55.539-79.837c-19.092-35.58-45.125-70.292-59.01-89.383c-4.339-5.207-7.81-10.414-9.546-13.017
			c0-2.603,0-5.207,3.471-7.81c3.471-1.736,6.075-3.471,8.678-4.339c21.695-8.678,52.936,1.736,70.292,21.695l0.868,0.868
			c6.075,6.942,13.017,14.753,19.959,21.695l25.244,24.612c0.823,0.982,1.673,2.019,2.526,3.157
			c13.885,17.356,39.051,45.993,63.349,62.481c7.81,4.339,13.017,8.678,13.885,19.092c0,4.339,4.339,7.81,8.678,7.81
			c5.207,0,8.678-4.339,8.678-8.678c-0.868-19.959-13.017-27.769-20.827-32.976c-7.854-5.135-15.812-11.849-23.436-19.114
			c21.439-0.346,40-13.503,48.301-32.086h2.037c0.59,0.59,1.196,1.164,1.814,1.724c0.058,0.052,0.118,0.1,0.176,0.152
			c8.343,7.489,19.193,12.238,31.13,12.814c0.82,0.041,1.64,0.062,2.46,0.062c15.318,0,29.223-6.56,39.063-16.987
			c4.997,14.888,16.766,26.676,31.643,31.699c0.052,0.018,0.104,0.035,0.155,0.053c0.529,0.177,1.06,0.347,1.597,0.506
			c0.271,0.081,0.544,0.156,0.817,0.232c0.396,0.11,0.791,0.224,1.192,0.325c0.702,0.178,1.411,0.343,2.126,0.491
			c0.116,0.024,0.233,0.042,0.349,0.065c0.648,0.129,1.3,0.246,1.958,0.35c0.221,0.035,0.443,0.064,0.665,0.096
			c0.56,0.081,1.123,0.153,1.69,0.215c0.246,0.027,0.492,0.053,0.739,0.076c0.567,0.054,1.138,0.096,1.711,0.13
			c0.229,0.014,0.457,0.031,0.687,0.042c0.791,0.037,1.586,0.06,2.389,0.06c14.005,0,26.83-5.481,36.447-14.389v1.372
			c0,26.902,23.431,47.729,52.068,47.729c13.885,0,26.034-4.339,34.712-12.149V313.582z"/>
	</g>
</g>
</svg>